<?xml version="1.0" encoding="UTF-8" standalone="no"?>
<!-- Created with Inkscape (http://www.inkscape.org/) -->

<svg
   width="52.17807mm"
   height="52.178055mm"
   viewBox="0 0 52.17807 52.178055"
   version="1.1"
   id="svg5"
   inkscape:version="1.2.2 (b0a8486541, 2022-12-01)"
   sodipodi:docname="visualisations.svg"
   xml:space="preserve"
   xmlns:inkscape="http://www.inkscape.org/namespaces/inkscape"
   xmlns:sodipodi="http://sodipodi.sourceforge.net/DTD/sodipodi-0.dtd"
   xmlns="http://www.w3.org/2000/svg"
   xmlns:svg="http://www.w3.org/2000/svg"><sodipodi:namedview
     id="namedview7"
     pagecolor="#ffffff"
     bordercolor="#cccccc"
     borderopacity="1"
     inkscape:showpageshadow="0"
     inkscape:pageopacity="1"
     inkscape:pagecheckerboard="0"
     inkscape:deskcolor="#d1d1d1"
     inkscape:document-units="mm"
     showgrid="false"
     inkscape:zoom="0.914906"
     inkscape:cx="337.73961"
     inkscape:cy="572.73643"
     inkscape:window-width="2560"
     inkscape:window-height="1377"
     inkscape:window-x="0"
     inkscape:window-y="31"
     inkscape:window-maximized="1"
     inkscape:current-layer="layer1" /><defs
     id="defs2"><style
       type="text/css"
       id="style666">
    .str0 {stroke:#4D4948;stroke-width:0.0402754}
    .str2 {stroke:#007CC3;stroke-width:0.0805622}
    .str1 {stroke:#E77817;stroke-width:0.161136;stroke-linecap:round}
    .fil1 {fill:none}
    .fil0 {fill:#4D4948}
    .fil2 {fill:#75C5F0}
    .fil3 {fill:white;fill-rule:nonzero}
  </style></defs><g
     inkscape:label="Layer 1"
     inkscape:groupmode="layer"
     id="layer1"
     transform="translate(-141.23136,-131.73286)"><!-- Thought bubble clouds --><!-- Abstract brain shape --><!-- Background (optional) --><!-- Axes --><!-- Square wave --><!-- Optional: dots at corners for emphasis --><g
       style="clip-rule:evenodd;fill-rule:evenodd;image-rendering:optimizeQuality;shape-rendering:geometricPrecision;text-rendering:geometricPrecision"
       id="g755"
       transform="matrix(17.981508,0,0,17.981508,141.23125,131.73276)"><g
         id="Diagram">
  <g
   id="_48926336">
   <path
   id="_90494528"
   d="m 0.76572,0.30896 h 1.3703 c 0.25159,0 0.45677,0.20518 0.45677,0.45677 v 1.3703 c 0,0.25159 -0.20518,0.45677 -0.45677,0.45677 h -1.3703 c -0.25159,0 -0.45677,-0.20518 -0.45677,-0.45677 v -1.3703 c 0,-0.25159 0.20518,-0.45677 0.45677,-0.45677 z"
   class="fil0 str0" />
   <g
   id="g678">
    <line
   id="_89140104"
   y2="1.9076"
   class="fil1 str1"
   x2="0.080573998"
   y1="1.9076"
   x1="0.30895999" />
    <line
   id="_48645576"
   y2="1.6791"
   class="fil1 str1"
   x2="0.080573998"
   y1="1.6791"
   x1="0.30895999" />
    <line
   id="_90012816"
   y2="1.2225"
   class="fil1 str1"
   x2="0.080573998"
   y1="1.2225"
   x1="0.30895999" />
    <line
   id="_89605808"
   y2="1.4507"
   class="fil1 str1"
   x2="0.080573998"
   y1="1.4507"
   x1="0.30895999" />
    <line
   id="_88952184"
   y2="0.99392003"
   class="fil1 str1"
   x2="0.080573998"
   y1="0.99392003"
   x1="0.30895999" />
    <line
   id="_89061504"
   y2="0.76554"
   class="fil1 str1"
   x2="0.080573998"
   y1="0.76554"
   x1="0.30895999" />
    <line
   id="_47801304"
   y2="2.1359"
   class="fil1 str1"
   x2="0.080573998"
   y1="2.1359"
   x1="0.30895999" />
   </g>
   <g
   id="g687">
    <line
   id="_87389672"
   y2="1.9076"
   class="fil1 str1"
   x2="2.5927999"
   y1="1.9076"
   x1="2.8211999" />
    <line
   id="_87302792"
   y2="1.6791"
   class="fil1 str1"
   x2="2.5927999"
   y1="1.6791"
   x1="2.8211999" />
    <line
   id="_48540968"
   y2="1.2225"
   class="fil1 str1"
   x2="2.5927999"
   y1="1.2225"
   x1="2.8211999" />
    <line
   id="_88243760"
   y2="1.4507"
   class="fil1 str1"
   x2="2.5927999"
   y1="1.4507"
   x1="2.8211999" />
    <line
   id="_48734880"
   y2="0.99392003"
   class="fil1 str1"
   x2="2.5927999"
   y1="0.99392003"
   x1="2.8211999" />
    <line
   id="_48558064"
   y2="0.76554"
   class="fil1 str1"
   x2="2.5927999"
   y1="0.76554"
   x1="2.8211999" />
    <line
   id="_46316176"
   y2="2.1359"
   class="fil1 str1"
   x2="2.5927999"
   y1="2.1359"
   x1="2.8211999" />
   </g>
   <g
   id="g696">
    <line
   id="_87165400"
   y2="2.5927999"
   class="fil1 str1"
   x2="0.99410999"
   y1="2.8211999"
   x1="0.99410999" />
    <line
   id="_87177760"
   y2="2.5927999"
   class="fil1 str1"
   x2="1.2227"
   y1="2.8211999"
   x1="1.2227" />
    <line
   id="_88122544"
   y2="2.5927999"
   class="fil1 str1"
   x2="1.6793"
   y1="2.8211999"
   x1="1.6793" />
    <line
   id="_48874680"
   y2="2.5927999"
   class="fil1 str1"
   x2="1.4511"
   y1="2.8211999"
   x1="1.4511" />
    <line
   id="_87109808"
   y2="2.5927999"
   class="fil1 str1"
   x2="1.9078"
   y1="2.8211999"
   x1="1.9078" />
    <line
   id="_47812144"
   y2="2.5927999"
   class="fil1 str1"
   x2="2.1362"
   y1="2.8211999"
   x1="2.1362" />
    <line
   id="_88574048"
   y2="2.5927999"
   class="fil1 str1"
   x2="0.76582003"
   y1="2.8211999"
   x1="0.76582003" />
   </g>
   <g
   id="g705">
    <line
   id="_47807464"
   y2="0.080573998"
   class="fil1 str1"
   x2="0.99401999"
   y1="0.30895999"
   x1="0.99401999" />
    <line
   id="_89272840"
   y2="0.080573998"
   class="fil1 str1"
   x2="1.2226"
   y1="0.30895999"
   x1="1.2226" />
    <line
   id="_88871976"
   y2="0.080573998"
   class="fil1 str1"
   x2="1.6792001"
   y1="0.30895999"
   x1="1.6792001" />
    <line
   id="_88766448"
   y2="0.080573998"
   class="fil1 str1"
   x2="1.451"
   y1="0.30895999"
   x1="1.451" />
    <line
   id="_87712736"
   y2="0.080573998"
   class="fil1 str1"
   x2="1.9076999"
   y1="0.30895999"
   x1="1.9076999" />
    <line
   id="_48819824"
   y2="0.080573998"
   class="fil1 str1"
   x2="2.1361001"
   y1="0.30895999"
   x1="2.1361001" />
    <line
   id="_87129584"
   y2="0.080573998"
   class="fil1 str1"
   x2="0.76572001"
   y1="0.30895999"
   x1="0.76572001" />
   </g>
   <path
   id="_88809256"
   d="m 0.90275,0.62869 h 1.0962 c 0.15095,0 0.27406,0.12311 0.27406,0.27406 v 1.0962 c 0,0.15095 -0.12311,0.27406 -0.27406,0.27406 H 0.90275 C 0.7518,2.27301 0.62869,2.1499 0.62869,1.99895 v -1.0962 c 0,-0.15095 0.12311,-0.27406 0.27406,-0.27406 z"
   class="fil2 str2" />
   <path
   id="_48961616"
   d="m 1.1268,0.97163 c 0,0.032568 -0.00256,0.061892 -0.00781,0.08811 C 1.11369,1.085913 1.105104,1.108294 1.093274,1.126748 1.081489,1.145247 1.066005,1.159407 1.047004,1.169273 1.028094,1.179043 1.004799,1.184027 0.977256,1.184027 0.949439,1.184027 0.926372,1.179277 0.908102,1.16973 0.8898303,1.1601379 0.8753513,1.146389 0.8647083,1.128484 0.8539743,1.110533 0.8464373,1.088608 0.8421443,1.06271 0.8378507,1.036857 0.8357039,1.007533 0.8357039,0.974737 c 0,-0.032339 0.002695,-0.061664 0.008039,-0.087973 C 0.8491328,0.860454 0.85772,0.838118 0.86955,0.819619 0.881335,0.801166 0.896819,0.78696 0.91582,0.777094 0.93473,0.7671822 0.957934,0.762386 0.985248,0.762386 c 0.027817,0 0.051021,0.004705 0.069383,0.014251 0.018271,0.009592 0.032842,0.023341 0.043484,0.041292 0.010734,0.017905 0.018179,0.03983 0.022336,0.065729 0.0042,0.025899 0.00635,0.055223 0.00635,0.087972 z M 1.04344,0.975695 c 0,-0.019321 -5.481e-4,-0.036313 -0.0016,-0.051112 C 1.04074,0.909738 1.03915,0.896949 1.037,0.886032 1.03476,0.87507 1.03207,0.865797 1.02873,0.858306 1.02549,0.850769 1.02151,0.84474 1.017037,0.840264 1.012427,0.835742 1.007127,0.832499 1.001233,0.830581 0.995341,0.828754 0.988855,0.827795 0.981683,0.827795 0.969305,0.827795 0.959119,0.83081 0.95108,0.836702 0.942995,0.842731 0.936555,0.85173 0.93185,0.863651 0.9271,0.875573 0.923765,0.890509 0.921938,0.908368 0.92002,0.926182 0.91906,0.946919 0.91906,0.970671 c 0,0.029005 0.001188,0.052939 0.003517,0.071849 0.002284,0.019002 0.005938,0.034166 0.010871,0.045357 0.004933,0.011282 0.011282,0.019093 0.019002,0.023615 0.007765,0.00452 0.017083,0.00676 0.028046,0.00676 0.008176,0 0.015347,-0.00128 0.021696,-0.00397 0.00626,-0.00256 0.01183,-0.00653 0.016535,-0.011693 0.00475,-0.00525 0.00859,-0.011922 0.011739,-0.019869 0.0032,-0.00795 0.0058,-0.017174 0.00772,-0.027726 C 1.040246,1.04458 1.041516,1.032658 1.042256,1.019458 1.0430325,1.006212 1.043446,0.991595 1.043446,0.9757 Z m 0.39812,0.16964 c 0,0.00589 -3.197e-4,0.010825 -9.592e-4,0.014936 -6.395e-4,0.00407 -0.00151,0.0074 -0.00269,0.00977 -0.00119,0.00238 -0.00247,0.0042 -0.00397,0.00516 -0.00137,0.00105 -0.00311,0.0016 -0.00502,0.0016 h -0.22464 c -0.00174,0 -0.00333,-5.481e-4 -0.00475,-0.0016 -0.00146,-9.592e-4 -0.00279,-0.00279 -0.00397,-0.00516 -0.00114,-0.00238 -0.00201,-0.00571 -0.00265,-0.00977 -6.395e-4,-0.00411 -9.592e-4,-0.00904 -9.592e-4,-0.014936 0,-0.00612 3.197e-4,-0.011191 8.222e-4,-0.015256 5.481e-4,-0.00407 0.00132,-0.0074 0.00247,-0.00987 0.00119,-0.0026 0.00251,-0.00443 0.00397,-0.00562 0.00142,-0.00105 0.00315,-0.00169 0.00507,-0.00169 h 0.075823 v -0.26502 l -0.0655,0.036176 c -0.00484,0.002375 -0.00872,0.003791 -0.01183,0.004294 -0.00301,5.4812e-4 -0.00539,-9.135e-5 -0.00722,-0.001918 -0.00183,-0.001736 -0.00297,-0.004842 -0.00361,-0.009227 -5.482e-4,-0.004431 -8.679e-4,-0.010643 -8.679e-4,-0.01859 0,-0.00507 9.14e-5,-0.009135 3.197e-4,-0.01247 9.14e-5,-0.003197 6.395e-4,-0.006029 0.00151,-0.008267 8.222e-4,-0.002375 0.00201,-0.004202 0.00343,-0.00571 0.00151,-0.001507 0.00356,-0.003015 0.00603,-0.004705 l 0.087516,-0.056639 c 0.001,-8.2218e-4 0.00228,-0.001507 0.00388,-0.00201 0.0016,-5.4812e-4 0.00365,-9.5921e-4 0.00612,-0.001279 0.0026,-3.6541e-4 0.0058,-5.4812e-4 0.010003,-6.8515e-4 0.00407,-9.135e-5 0.00932,-9.135e-5 0.015896,-9.135e-5 0.00795,0 0.014388,9.135e-5 0.019321,4.1109e-4 0.00493,3.6541e-4 0.00859,8.6786e-4 0.011191,0.001644 0.00247,6.3947e-4 0.0042,0.00169 0.00502,0.002878 7.765e-4,0.001279 0.00119,0.002923 0.00119,0.00475 V 1.1128967 h 0.066414 c 0.00192,0 0.00365,6.395e-4 0.00525,0.00169 0.00151,0.00119 0.00288,0.00301 0.00407,0.00562 0.00119,0.00247 0.00196,0.0058 0.00247,0.00987 5.482e-4,0.00407 8.679e-4,0.00914 8.679e-4,0.015256 z m 0.3386,-0.17371 c 0,0.032568 -0.00256,0.061892 -0.00781,0.08811 C 1.76705,1.085908 1.758464,1.108289 1.746634,1.126743 1.734849,1.145242 1.719365,1.159402 1.700364,1.169268 1.681454,1.179038 1.658159,1.184022 1.630616,1.184022 1.602799,1.184022 1.579732,1.179272 1.561462,1.169725 1.543191,1.160135 1.528712,1.146384 1.518069,1.128479 1.507335,1.110528 1.499798,1.088603 1.495505,1.062705 1.491215,1.036852 1.489065,1.007528 1.489065,0.974732 c 0,-0.032339 0.00269,-0.061664 0.00804,-0.087973 C 1.502495,0.860449 1.511082,0.838113 1.522912,0.819614 1.534697,0.801161 1.550181,0.786955 1.569182,0.777089 1.588092,0.767177 1.611296,0.762381 1.63861,0.762381 c 0.027817,0 0.051021,0.004705 0.069383,0.014251 0.018271,0.009592 0.032842,0.023341 0.043484,0.041292 0.010734,0.017905 0.018179,0.03983 0.022336,0.065729 0.0042,0.025899 0.00635,0.055223 0.00635,0.087972 z M 1.6968,0.9756904 c 0,-0.019321 -5.481e-4,-0.036313 -0.0016,-0.051112 C 1.6941,0.9097334 1.69251,0.8969444 1.69036,0.8860274 1.68812,0.8750654 1.68543,0.8657924 1.68209,0.8583014 1.67885,0.8507644 1.67487,0.8447354 1.670397,0.8402594 1.665787,0.8357374 1.660487,0.8324944 1.654593,0.8305764 1.648703,0.8287494 1.642215,0.8277904 1.635043,0.8277904 c -0.012378,0 -0.022564,0.003015 -0.030603,0.008907 -0.00808,0.006029 -0.014525,0.015028 -0.01923,0.026949 -0.00475,0.011922 -0.00808,0.026858 -0.00991,0.044717 -0.00192,0.017814 -0.00288,0.038551 -0.00288,0.062303 0,0.029005 0.00119,0.052939 0.00352,0.071849 0.00228,0.019002 0.00594,0.034166 0.010871,0.045357 0.00493,0.011282 0.011282,0.019093 0.019002,0.023615 0.00777,0.00452 0.017083,0.00676 0.028046,0.00676 0.00818,0 0.015347,-0.00128 0.021696,-0.00397 0.00626,-0.00256 0.01183,-0.00653 0.016535,-0.011693 0.00475,-0.00525 0.00859,-0.011922 0.011739,-0.019869 0.0032,-0.00795 0.0058,-0.017174 0.00772,-0.027726 0.00206,-0.010414 0.00333,-0.022336 0.00407,-0.035536 7.765e-4,-0.013246 0.00119,-0.027863 0.00119,-0.043758 z m 0.39812,0.16964 c 0,0.00589 -3.197e-4,0.010825 -9.592e-4,0.014936 -6.395e-4,0.00407 -0.00151,0.0074 -0.00269,0.00977 -0.00119,0.00238 -0.00247,0.0042 -0.00397,0.00516 -0.00137,0.00105 -0.00311,0.0016 -0.00502,0.0016 h -0.22464 c -0.00174,0 -0.00333,-5.481e-4 -0.00475,-0.0016 -0.00146,-9.592e-4 -0.00279,-0.00279 -0.00397,-0.00516 -0.00114,-0.00238 -0.00201,-0.00571 -0.00265,-0.00977 -6.395e-4,-0.00411 -9.592e-4,-0.00904 -9.592e-4,-0.014936 0,-0.00612 3.197e-4,-0.011191 8.222e-4,-0.015256 5.481e-4,-0.00407 0.00132,-0.0074 0.00247,-0.00987 0.00119,-0.0026 0.00251,-0.00443 0.00397,-0.00562 0.00142,-0.00105 0.00315,-0.00169 0.00507,-0.00169 h 0.075823 V 0.84788 l -0.0655,0.036176 c -0.00484,0.002375 -0.00872,0.003791 -0.01183,0.004294 -0.00301,5.4812e-4 -0.00539,-9.135e-5 -0.00722,-0.001918 -0.00183,-0.001736 -0.00297,-0.004842 -0.00361,-0.009227 -5.482e-4,-0.004431 -8.679e-4,-0.010643 -8.679e-4,-0.01859 0,-0.00507 9.14e-5,-0.009135 3.197e-4,-0.01247 9.14e-5,-0.003197 6.395e-4,-0.006029 0.00151,-0.008267 8.222e-4,-0.002375 0.00201,-0.004202 0.00343,-0.00571 0.00151,-0.001507 0.00356,-0.003015 0.00603,-0.004705 l 0.087516,-0.056639 c 10e-4,-8.2218e-4 0.00228,-0.001507 0.00388,-0.00201 0.0016,-5.4812e-4 0.00365,-9.5921e-4 0.00612,-0.001279 0.0026,-3.6541e-4 0.0058,-5.4812e-4 0.010003,-6.8515e-4 0.00407,-9.135e-5 0.00932,-9.135e-5 0.015896,-9.135e-5 0.00795,0 0.014388,9.135e-5 0.019321,4.1109e-4 0.00493,3.6541e-4 0.00859,8.6786e-4 0.011191,0.001644 0.00247,6.3947e-4 0.0042,0.00169 0.00502,0.002878 7.765e-4,0.001279 0.00119,0.002923 0.00119,0.00475 V 1.1128919 h 0.066414 c 0.00192,0 0.00365,6.395e-4 0.00525,0.00169 0.00151,0.00119 0.00288,0.00301 0.00407,0.00562 0.00119,0.00247 0.00196,0.0058 0.00247,0.00987 5.482e-4,0.00407 8.679e-4,0.00914 8.679e-4,0.015256 z m -0.98004,0.47207 c 0,0.00589 -3.197e-4,0.010825 -9.592e-4,0.014936 -6.395e-4,0.00407 -0.00151,0.0074 -0.00269,0.00977 -0.00119,0.00238 -0.00247,0.0042 -0.00397,0.00516 -0.00137,0.00105 -0.00311,0.0016 -0.00502,0.0016 H 0.87758759 c -0.001736,0 -0.003334,-5.481e-4 -0.00475,-0.0016 -0.001462,-9.592e-4 -0.002786,-0.00279 -0.003974,-0.00516 -0.001142,-0.00238 -0.00201,-0.00571 -0.002649,-0.00977 -6.3947e-4,-0.00411 -9.5921e-4,-0.00904 -9.5921e-4,-0.014936 0,-0.00612 3.1974e-4,-0.011191 8.2218e-4,-0.015256 5.4812e-4,-0.00407 0.001325,-0.0074 0.002467,-0.00987 0.001188,-0.0026 0.002512,-0.00443 0.003974,-0.00562 0.001416,-0.00105 0.003152,-0.00169 0.00507,-0.00169 h 0.075823 V 1.31995 l -0.0655,0.036176 c -0.004842,0.00238 -0.008724,0.00379 -0.01183,0.00429 -0.003015,5.481e-4 -0.00539,-9.14e-5 -0.007217,-0.00192 -0.001827,-0.00174 -0.002969,-0.00484 -0.003609,-0.00923 -5.4812e-4,-0.00443 -8.6786e-4,-0.010643 -8.6786e-4,-0.01859 0,-0.00507 9.135e-5,-0.00914 3.1974e-4,-0.01247 9.135e-5,-0.0032 6.3947e-4,-0.00603 0.001507,-0.00827 8.2218e-4,-0.00238 0.00201,-0.0042 0.003426,-0.00571 0.001507,-0.00151 0.003563,-0.00301 0.006029,-0.0047 l 0.087516,-0.056639 c 0.001005,-8.222e-4 0.002284,-0.00151 0.003883,-0.00201 0.001599,-5.481e-4 0.003654,-9.592e-4 0.006121,-0.00128 0.002604,-3.654e-4 0.005801,-5.481e-4 0.010003,-6.852e-4 0.004065,-9.13e-5 0.009318,-9.13e-5 0.015896,-9.13e-5 0.007948,0 0.014388,9.13e-5 0.019321,4.111e-4 0.00493,3.654e-4 0.00859,8.678e-4 0.011191,0.00164 0.00247,6.395e-4 0.0042,0.00169 0.00502,0.00288 7.765e-4,0.00128 0.00119,0.00292 0.00119,0.00475 v 0.33645 h 0.066414 c 0.00192,0 0.00365,6.395e-4 0.00525,0.00169 0.00151,0.00119 0.00288,0.00301 0.00407,0.00562 0.00119,0.00247 0.00196,0.0058 0.00247,0.00987 5.482e-4,0.00407 8.679e-4,0.00914 8.679e-4,0.015256 z m 0.3386,-0.17371 c 0,0.032568 -0.00256,0.061892 -0.00781,0.08811 -0.0053,0.026173 -0.013886,0.048554 -0.025716,0.067008 -0.011785,0.018499 -0.027269,0.032659 -0.04627,0.042525 -0.01891,0.00977 -0.042205,0.014754 -0.069748,0.014754 -0.027817,0 -0.050884,-0.00475 -0.069154,-0.014297 -0.018271,-0.00959 -0.03275,-0.023341 -0.043393,-0.041246 -0.010734,-0.017951 -0.018271,-0.039876 -0.022564,-0.065774 -0.00429,-0.025853 -0.00644,-0.055177 -0.00644,-0.087973 0,-0.032339 0.00269,-0.061664 0.00804,-0.087973 0.00539,-0.02631 0.013977,-0.048646 0.025807,-0.067145 0.011785,-0.018453 0.027269,-0.032659 0.04627,-0.042525 0.01891,-0.00991 0.042114,-0.014708 0.069428,-0.014708 0.027817,0 0.051021,0.0047 0.069383,0.014251 0.018271,0.00959 0.032842,0.023341 0.043484,0.041292 0.010734,0.017905 0.018179,0.03983 0.022336,0.065729 0.0042,0.025899 0.00635,0.055223 0.00635,0.087972 z m -0.08336,0.00407 c 0,-0.019321 -5.481e-4,-0.036313 -0.0016,-0.051112 C 1.36742,1.3818034 1.36583,1.3690144 1.36368,1.3580974 1.36144,1.3471354 1.35875,1.3378624 1.35541,1.3303714 1.35217,1.3228314 1.34819,1.3168054 1.343717,1.3123294 c -0.00461,-0.00452 -0.00991,-0.00777 -0.015804,-0.00968 -0.00589,-0.00183 -0.012378,-0.00279 -0.01955,-0.00279 -0.012378,0 -0.022564,0.00301 -0.030603,0.00891 -0.00808,0.00603 -0.014525,0.015028 -0.01923,0.026949 -0.00475,0.011922 -0.00808,0.026858 -0.00991,0.044717 -0.00192,0.017814 -0.00288,0.038551 -0.00288,0.062303 0,0.029005 0.00119,0.052939 0.00352,0.071849 0.00228,0.019002 0.00594,0.034166 0.010871,0.045357 0.00493,0.011282 0.011282,0.019093 0.019002,0.023615 0.00777,0.00452 0.017083,0.00676 0.028046,0.00676 0.00818,0 0.015347,-0.00128 0.021696,-0.00397 0.00626,-0.00256 0.01183,-0.00653 0.016535,-0.011693 0.00475,-0.00525 0.00859,-0.011922 0.011739,-0.019869 0.0032,-0.00795 0.0058,-0.017174 0.00772,-0.027726 0.00206,-0.010414 0.00333,-0.022336 0.00407,-0.035536 7.765e-4,-0.013246 0.00119,-0.027863 0.00119,-0.043758 z m 0.39812,0.16964 c 0,0.00589 -3.197e-4,0.010825 -9.592e-4,0.014936 -6.395e-4,0.00407 -0.00151,0.0074 -0.00269,0.00977 -0.00119,0.00238 -0.00247,0.0042 -0.00397,0.00516 -0.00137,0.00105 -0.00311,0.0016 -0.00502,0.0016 h -0.22464 c -0.00174,0 -0.00333,-5.481e-4 -0.00475,-0.0016 -0.00146,-9.592e-4 -0.00279,-0.00279 -0.00397,-0.00516 -0.00114,-0.00238 -0.00201,-0.00571 -0.00265,-0.00977 -6.395e-4,-0.00411 -9.592e-4,-0.00904 -9.592e-4,-0.014936 0,-0.00612 3.197e-4,-0.011191 8.222e-4,-0.015256 5.481e-4,-0.00407 0.00132,-0.0074 0.00247,-0.00987 0.00119,-0.0026 0.00251,-0.00443 0.00397,-0.00562 0.00142,-0.00105 0.00315,-0.00169 0.00507,-0.00169 h 0.075823 v -0.26502 l -0.0655,0.036176 c -0.00484,0.00238 -0.00872,0.00379 -0.01183,0.00429 -0.00301,5.481e-4 -0.00539,-9.14e-5 -0.00722,-0.00192 -0.00183,-0.00174 -0.00297,-0.00484 -0.00361,-0.00923 -5.482e-4,-0.00443 -8.679e-4,-0.010643 -8.679e-4,-0.01859 0,-0.00507 9.14e-5,-0.00914 3.197e-4,-0.01247 9.14e-5,-0.0032 6.395e-4,-0.00603 0.00151,-0.00827 8.222e-4,-0.00238 0.00201,-0.0042 0.00343,-0.00571 0.00151,-0.00151 0.00356,-0.00301 0.00603,-0.0047 l 0.087516,-0.056639 c 10e-4,-8.222e-4 0.00228,-0.00151 0.00388,-0.00201 0.0016,-5.481e-4 0.00365,-9.592e-4 0.00612,-0.00128 0.0026,-3.654e-4 0.0058,-5.481e-4 0.010003,-6.852e-4 0.00407,-9.13e-5 0.00932,-9.13e-5 0.015896,-9.13e-5 0.00795,0 0.014388,9.13e-5 0.019321,4.111e-4 0.00493,3.654e-4 0.00859,8.678e-4 0.011191,0.00164 0.00247,6.395e-4 0.0042,0.00169 0.00502,0.00288 7.765e-4,0.00128 0.00119,0.00292 0.00119,0.00475 v 0.33645 h 0.066414 c 0.00192,0 0.00365,6.395e-4 0.00525,0.00169 0.00151,0.00119 0.00288,0.00301 0.00407,0.00562 0.00119,0.00247 0.00196,0.0058 0.00247,0.00987 5.482e-4,0.00407 8.679e-4,0.00914 8.679e-4,0.015256 z m 0.3386,-0.17371 c 0,0.032568 -0.00256,0.061892 -0.00781,0.08811 -0.0053,0.026173 -0.013886,0.048554 -0.025716,0.067008 -0.011785,0.018499 -0.027269,0.032659 -0.04627,0.042525 -0.01891,0.00977 -0.042205,0.014754 -0.069748,0.014754 -0.027817,0 -0.050884,-0.00475 -0.069154,-0.014297 -0.018271,-0.00959 -0.03275,-0.023341 -0.043393,-0.041246 -0.010734,-0.017951 -0.018271,-0.039876 -0.022564,-0.065774 -0.00429,-0.025853 -0.00644,-0.055177 -0.00644,-0.087973 0,-0.032339 0.00269,-0.061664 0.00804,-0.087973 0.00539,-0.02631 0.013977,-0.048646 0.025807,-0.067145 0.011785,-0.018453 0.027269,-0.032659 0.04627,-0.042525 0.01891,-0.00991 0.042114,-0.014708 0.069428,-0.014708 0.027817,0 0.051021,0.0047 0.069383,0.014251 0.018271,0.00959 0.032842,0.023341 0.043484,0.041292 0.010734,0.017905 0.018179,0.03983 0.022336,0.065729 0.0042,0.025899 0.00635,0.055223 0.00635,0.087972 z m -0.08336,0.00407 c 0,-0.019321 -5.481e-4,-0.036313 -0.0016,-0.051112 C 2.02078,1.3818034 2.01919,1.3690144 2.01704,1.3580974 2.0148,1.3471354 2.01211,1.3378624 2.00877,1.3303714 2.00553,1.3228314 2.00155,1.3168054 1.997077,1.3123294 c -0.00461,-0.00452 -0.00991,-0.00777 -0.015804,-0.00968 -0.00589,-0.00183 -0.012378,-0.00279 -0.01955,-0.00279 -0.012378,0 -0.022564,0.00301 -0.030603,0.00891 -0.00808,0.00603 -0.014525,0.015028 -0.01923,0.026949 -0.00475,0.011922 -0.00808,0.026858 -0.00991,0.044717 -0.00192,0.017814 -0.00288,0.038551 -0.00288,0.062303 0,0.029005 0.00119,0.052939 0.00352,0.071849 0.00228,0.019002 0.00594,0.034166 0.010871,0.045357 0.00493,0.011282 0.011282,0.019093 0.019002,0.023615 0.00777,0.00452 0.017083,0.00676 0.028046,0.00676 0.00818,0 0.015347,-0.00128 0.021696,-0.00397 0.00626,-0.00256 0.01183,-0.00653 0.016535,-0.011693 0.00475,-0.00525 0.00859,-0.011922 0.011739,-0.019869 0.0032,-0.00795 0.0058,-0.017174 0.00772,-0.027726 0.00206,-0.010414 0.00333,-0.022336 0.00407,-0.035536 7.765e-4,-0.013246 0.00119,-0.027863 0.00119,-0.043758 z m -0.89668,0.468 c 0,0.032568 -0.00256,0.061892 -0.00781,0.08811 -0.0053,0.026173 -0.013886,0.048554 -0.025716,0.067008 -0.011785,0.018499 -0.027269,0.032659 -0.04627,0.042525 -0.01891,0.00977 -0.042205,0.014754 -0.069748,0.014754 -0.027817,0 -0.050884,-0.00475 -0.069154,-0.014297 C 0.889831,2.1042704 0.875352,2.0905194 0.864709,2.0726144 0.853975,2.0546634 0.846438,2.0327384 0.842145,2.0068404 0.837851,1.9809874 0.835705,1.9516634 0.835705,1.9188674 c 0,-0.032339 0.002695,-0.061664 0.008039,-0.087973 0.00539,-0.02631 0.013977,-0.048646 0.025807,-0.067145 0.011785,-0.018453 0.027269,-0.032659 0.04627,-0.042525 0.01891,-0.00991 0.042114,-0.014708 0.069428,-0.014708 0.027817,0 0.051021,0.0047 0.069383,0.014251 0.018271,0.00959 0.032842,0.023341 0.043484,0.041292 0.010734,0.017905 0.018179,0.03983 0.022336,0.065729 0.0042,0.025899 0.00635,0.055223 0.00635,0.087972 z m -0.08336,0.00407 c 0,-0.019321 -5.481e-4,-0.036313 -0.0016,-0.051112 C 1.04074,1.8538734 1.03915,1.8410844 1.037,1.8301674 1.03476,1.8192054 1.03207,1.8099324 1.02873,1.8024414 1.02549,1.7949014 1.02151,1.7888754 1.017037,1.7843994 c -0.00461,-0.00452 -0.00991,-0.00777 -0.015804,-0.00968 -0.005892,-0.00183 -0.012378,-0.00279 -0.01955,-0.00279 -0.012378,0 -0.022564,0.00301 -0.030603,0.00891 -0.008085,0.00603 -0.014525,0.015028 -0.01923,0.026949 -0.00475,0.011922 -0.008085,0.026858 -0.009912,0.044717 -0.001918,0.017814 -0.002878,0.038551 -0.002878,0.062303 0,0.029005 0.001188,0.052939 0.003517,0.071849 0.002284,0.019002 0.005938,0.034166 0.010871,0.045357 0.004933,0.011282 0.011282,0.019093 0.019002,0.023615 0.007765,0.00452 0.017083,0.00676 0.028046,0.00676 0.008176,0 0.015347,-0.00128 0.021696,-0.00397 0.00626,-0.00256 0.01183,-0.00653 0.016535,-0.011693 0.00475,-0.00525 0.00859,-0.011922 0.011739,-0.019869 0.0032,-0.00795 0.0058,-0.017174 0.00772,-0.027726 0.00206,-0.010414 0.00333,-0.022336 0.00407,-0.035536 7.765e-4,-0.013246 0.00119,-0.027863 0.00119,-0.043758 z m 0.39812,0.16964 c 0,0.00589 -3.197e-4,0.010825 -9.592e-4,0.014936 -6.395e-4,0.00407 -0.00151,0.0074 -0.00269,0.00977 -0.00119,0.00238 -0.00247,0.0042 -0.00397,0.00516 -0.00137,0.00105 -0.00311,0.0016 -0.00502,0.0016 h -0.22464 c -0.00174,0 -0.00333,-5.481e-4 -0.00475,-0.0016 -0.00146,-9.592e-4 -0.00279,-0.00279 -0.00397,-0.00516 -0.00114,-0.00238 -0.00201,-0.00571 -0.00265,-0.00977 -6.395e-4,-0.00411 -9.592e-4,-0.00904 -9.592e-4,-0.014936 0,-0.00612 3.197e-4,-0.011191 8.222e-4,-0.015256 5.481e-4,-0.00407 0.00132,-0.0074 0.00247,-0.00987 0.00119,-0.0026 0.00251,-0.00443 0.00397,-0.00562 0.00142,-0.00105 0.00315,-0.00169 0.00507,-0.00169 h 0.075823 v -0.26502 l -0.0655,0.036176 c -0.00484,0.00238 -0.00872,0.00379 -0.01183,0.00429 -0.00301,5.481e-4 -0.00539,-9.14e-5 -0.00722,-0.00192 -0.00183,-0.00174 -0.00297,-0.00484 -0.00361,-0.00923 -5.482e-4,-0.00443 -8.679e-4,-0.010643 -8.679e-4,-0.01859 0,-0.00507 9.14e-5,-0.00914 3.197e-4,-0.01247 9.14e-5,-0.0032 6.395e-4,-0.00603 0.00151,-0.00827 8.222e-4,-0.00238 0.00201,-0.0042 0.00343,-0.00571 0.00151,-0.00151 0.00356,-0.00301 0.00603,-0.0047 l 0.087516,-0.056639 c 0.001,-8.222e-4 0.00228,-0.00151 0.00388,-0.00201 0.0016,-5.481e-4 0.00365,-9.592e-4 0.00612,-0.00128 0.0026,-3.654e-4 0.0058,-5.481e-4 0.010003,-6.851e-4 0.00407,-9.14e-5 0.00932,-9.14e-5 0.015896,-9.14e-5 0.00795,0 0.014388,9.14e-5 0.019321,4.111e-4 0.00493,3.654e-4 0.00859,8.678e-4 0.011191,0.00164 0.00247,6.395e-4 0.0042,0.00169 0.00502,0.00288 7.765e-4,0.00128 0.00119,0.00292 0.00119,0.00475 v 0.33645 h 0.066414 c 0.00192,0 0.00365,6.395e-4 0.00525,0.00169 0.00151,0.00119 0.00288,0.00301 0.00407,0.00562 0.00119,0.00247 0.00196,0.0058 0.00247,0.00987 5.482e-4,0.00407 8.679e-4,0.00914 8.679e-4,0.015256 z m 0.32668,0 c 0,0.00589 -3.197e-4,0.010825 -9.592e-4,0.014936 -6.395e-4,0.00407 -0.00151,0.0074 -0.00269,0.00977 -0.00119,0.00238 -0.00247,0.0042 -0.00397,0.00516 -0.00137,0.00105 -0.00311,0.0016 -0.00502,0.0016 h -0.22464 c -0.00174,0 -0.00333,-5.481e-4 -0.00475,-0.0016 -0.00146,-9.592e-4 -0.00279,-0.00279 -0.00397,-0.00516 -0.00114,-0.00238 -0.00201,-0.00571 -0.00265,-0.00977 -6.395e-4,-0.00411 -9.592e-4,-0.00904 -9.592e-4,-0.014936 0,-0.00612 3.197e-4,-0.011191 8.222e-4,-0.015256 5.481e-4,-0.00407 0.00132,-0.0074 0.00247,-0.00987 0.00119,-0.0026 0.00251,-0.00443 0.00397,-0.00562 0.00142,-0.00105 0.00315,-0.00169 0.00507,-0.00169 h 0.075823 v -0.26502 l -0.0655,0.036176 c -0.00484,0.00238 -0.00872,0.00379 -0.01183,0.00429 -0.00301,5.481e-4 -0.00539,-9.14e-5 -0.00722,-0.00192 -0.00183,-0.00174 -0.00297,-0.00484 -0.00361,-0.00923 -5.482e-4,-0.00443 -8.679e-4,-0.010643 -8.679e-4,-0.01859 0,-0.00507 9.14e-5,-0.00914 3.197e-4,-0.01247 9.14e-5,-0.0032 6.395e-4,-0.00603 0.00151,-0.00827 8.222e-4,-0.00238 0.00201,-0.0042 0.00343,-0.00571 0.00151,-0.00151 0.00356,-0.00301 0.00603,-0.0047 l 0.087516,-0.056639 c 10e-4,-8.222e-4 0.00228,-0.00151 0.00388,-0.00201 0.0016,-5.481e-4 0.00365,-9.592e-4 0.00612,-0.00128 0.0026,-3.654e-4 0.0058,-5.481e-4 0.010003,-6.851e-4 0.00407,-9.14e-5 0.00932,-9.14e-5 0.015896,-9.14e-5 0.00795,0 0.014388,9.14e-5 0.019321,4.111e-4 0.00493,3.654e-4 0.00859,8.678e-4 0.011191,0.00164 0.00247,6.395e-4 0.0042,0.00169 0.00502,0.00288 7.765e-4,0.00128 0.00119,0.00292 0.00119,0.00475 v 0.33645 h 0.066414 c 0.00192,0 0.00365,6.395e-4 0.00525,0.00169 0.00151,0.00119 0.00288,0.00301 0.00407,0.00562 0.00119,0.00247 0.00196,0.0058 0.00247,0.00987 5.482e-4,0.00407 8.679e-4,0.00914 8.679e-4,0.015256 z m 0.3386,-0.17371 c 0,0.032568 -0.00256,0.061892 -0.00781,0.08811 -0.0053,0.026173 -0.013886,0.048554 -0.025716,0.067008 -0.011785,0.018499 -0.027269,0.032659 -0.04627,0.042525 -0.01891,0.00977 -0.042205,0.014754 -0.069748,0.014754 -0.027817,0 -0.050884,-0.00475 -0.069154,-0.014297 C 1.8698703,2.1042539 1.8553913,2.090505 1.8447483,2.0726 1.8340143,2.054649 1.8264773,2.032724 1.8221843,2.006826 c -0.00429,-0.025853 -0.00644,-0.055177 -0.00644,-0.087973 0,-0.032339 0.00269,-0.061664 0.00804,-0.087973 C 1.8291728,1.80457 1.83776,1.782234 1.84959,1.763735 1.861375,1.745282 1.876859,1.731076 1.89586,1.72121 1.91477,1.7112982 1.937974,1.706502 1.965288,1.706502 c 0.027817,0 0.051021,0.0047 0.069383,0.014251 0.018271,0.00959 0.032842,0.023341 0.043484,0.041292 0.010734,0.017905 0.018179,0.03983 0.022336,0.065729 0.0042,0.025899 0.00635,0.055223 0.00635,0.087973 z m -0.08336,0.00407 c 0,-0.019321 -5.481e-4,-0.036313 -0.0016,-0.051112 C 2.02078,1.8538734 2.01919,1.8410844 2.01704,1.8301674 2.0148,1.8192054 2.01211,1.8099324 2.00877,1.8024414 2.00553,1.7949014 2.00155,1.7888754 1.997077,1.7843994 c -0.00461,-0.00452 -0.00991,-0.00777 -0.015804,-0.00968 -0.00589,-0.00183 -0.012378,-0.00279 -0.01955,-0.00279 -0.012378,0 -0.022564,0.00301 -0.030603,0.00891 -0.00808,0.00603 -0.014525,0.015028 -0.01923,0.026949 -0.00475,0.011922 -0.00808,0.026858 -0.00991,0.044717 -0.00192,0.017814 -0.00288,0.038551 -0.00288,0.062303 0,0.029005 0.00119,0.052939 0.00352,0.071849 0.00228,0.019002 0.00594,0.034166 0.010871,0.045357 0.00493,0.011282 0.011282,0.019093 0.019002,0.023615 0.00777,0.00452 0.017083,0.00676 0.028046,0.00676 0.00818,0 0.015347,-0.00128 0.021696,-0.00397 0.00626,-0.00256 0.01183,-0.00653 0.016535,-0.011693 0.00475,-0.00525 0.00859,-0.011922 0.011739,-0.019869 0.0032,-0.00795 0.0058,-0.017174 0.00772,-0.027726 0.00206,-0.010414 0.00333,-0.022336 0.00407,-0.035536 7.765e-4,-0.013246 0.00119,-0.027863 0.00119,-0.043758 z"
   class="fil3" />
  </g>
 </g></g></g></svg>
