<?xml version="1.0" encoding="UTF-8" standalone="no"?>
<!-- Generated by graphviz version 2.43.0 (0)
 -->

<!-- Title: %3 Pages: 1 -->

<svg
   width="407.34644pt"
   height="275.00003pt"
   viewBox="0 0 407.34644 275.00002"
   version="1.1"
   id="svg210"
   sodipodi:docname="lenet5.svg"
   inkscape:export-filename="lenet5-1.svg"
   inkscape:export-xdpi="96"
   inkscape:export-ydpi="96"
   xmlns:inkscape="http://www.inkscape.org/namespaces/inkscape"
   xmlns:sodipodi="http://sodipodi.sourceforge.net/DTD/sodipodi-0.dtd"
   xmlns="http://www.w3.org/2000/svg"
   xmlns:svg="http://www.w3.org/2000/svg">
  <defs
     id="defs214">
    <marker
       style="overflow:visible"
       id="Arrow2"
       refX="0"
       refY="0"
       orient="auto-start-reverse"
       inkscape:stockid="Arrow2"
       markerWidth="7.6999998"
       markerHeight="5.5999999"
       viewBox="0 0 7.7 5.6"
       inkscape:isstock="true"
       inkscape:collect="always"
       preserveAspectRatio="xMidYMid">
      <path
         transform="scale(0.7)"
         d="M -2,-4 9,0 -2,4 c 2,-2.33 2,-5.66 0,-8 z"
         style="fill:context-stroke;fill-rule:evenodd;stroke:none"
         id="arrow2L" />
    </marker>
  </defs>
  <sodipodi:namedview
     id="namedview212"
     pagecolor="#ffffff"
     bordercolor="#cccccc"
     borderopacity="1"
     inkscape:showpageshadow="0"
     inkscape:pageopacity="1"
     inkscape:pagecheckerboard="0"
     inkscape:deskcolor="#d1d1d1"
     inkscape:document-units="pt"
     showgrid="false" />
  <g
     id="g672"
     transform="translate(-22.565224,-14.560568)">
    <g
       id="node6"
       class="node"
       transform="translate(-342.47245,110.56057)">
      <title
         id="title76">3</title>
      <polygon
         fill="#ffc655"
         stroke="#ffc655"
         points="391,0 450,0 450,-36 391,-36 "
         id="polygon78" />
      <text
         text-anchor="middle"
         x="420.5"
         y="-14.3"
         font-family="Times, serif"
         font-size="14px"
         id="text80">Conv2d</text>
    </g>
    <g
       id="node7"
       class="node"
       transform="translate(-342.47245,110.56057)">
      <title
         id="title90">4</title>
      <polygon
         fill="#a0d5f1"
         stroke="#a0d5f1"
         points="486,0 540,0 540,-36 486,-36 "
         id="polygon92" />
      <text
         text-anchor="middle"
         x="513"
         y="-14.3"
         font-family="Times, serif"
         font-size="14px"
         id="text94">IF</text>
    </g>
    <g
       id="edge9"
       class="edge"
       transform="translate(-342.47245,110.56057)">
      <title
         id="title97">3-&gt;4</title>
      <path
         fill="none"
         stroke="#000000"
         d="m 450.13,-18 c 8.1,0 17.03,0 25.52,0"
         id="path99" />
      <polygon
         fill="#000000"
         stroke="#000000"
         points="475.7,-14.5 475.7,-21.5 485.7,-18 "
         id="polygon101" />
    </g>
    <g
       id="node8"
       class="node"
       transform="translate(-342.47245,110.56057)">
      <title
         id="title104">5</title>
      <polygon
         fill="#4a9bff"
         stroke="#4a9bff"
         points="576,0 656,0 656,-36 576,-36 "
         id="polygon106" />
      <text
         text-anchor="middle"
         x="616"
         y="-14.3"
         font-family="Times, serif"
         font-size="14px"
         id="text108">SumPool2d</text>
    </g>
    <g
       id="edge11"
       class="edge"
       transform="translate(-342.47245,110.56057)">
      <title
         id="title111">4-&gt;5</title>
      <path
         fill="none"
         stroke="#000000"
         d="m 540.01,-18 c 7.81,0 16.66,0 25.47,0"
         id="path113" />
      <polygon
         fill="#000000"
         stroke="#000000"
         points="565.73,-14.5 565.73,-21.5 575.73,-18 "
         id="polygon115" />
    </g>
    <g
       id="node9"
       class="node"
       transform="translate(-342.47245,110.56057)">
      <title
         id="title118">6</title>
      <polygon
         fill="#e4b9dd"
         stroke="#e4b9dd"
         points="692,0 746,0 746,-36 692,-36 "
         id="polygon120" />
      <text
         text-anchor="middle"
         x="719"
         y="-14.3"
         font-family="Times, serif"
         font-size="14px"
         id="text122">Flatten</text>
    </g>
    <g
       id="edge8"
       class="edge"
       transform="translate(-342.47245,110.56057)">
      <title
         id="title125">5-&gt;6</title>
      <path
         fill="none"
         stroke="#000000"
         d="m 656.05,-18 c 8.43,0 17.31,0 25.63,0"
         id="path127" />
      <polygon
         fill="#000000"
         stroke="#000000"
         points="681.85,-14.5 681.85,-21.5 691.85,-18 "
         id="polygon129" />
    </g>
  </g>
  <g
     id="g686"
     transform="translate(64.785356,-26.233578)">
    <g
       id="node10"
       class="node"
       transform="translate(-715.32303,181.73358)">
      <title
         id="title132">7</title>
      <polygon
         fill="#71c8b0"
         stroke="#71c8b0"
         points="782,0 836,0 836,-36 782,-36 "
         id="polygon134" />
      <text
         text-anchor="middle"
         x="809"
         y="-14.3"
         font-family="Times, serif"
         font-size="14px"
         id="text136">Affine</text>
    </g>
    <g
       id="node11"
       class="node"
       transform="translate(-715.32303,181.73358)">
      <title
         id="title146">8</title>
      <polygon
         fill="#a0d5f1"
         stroke="#a0d5f1"
         points="872,0 926,0 926,-36 872,-36 "
         id="polygon148" />
      <text
         text-anchor="middle"
         x="899"
         y="-14.3"
         font-family="Times, serif"
         font-size="14px"
         id="text150">IF</text>
    </g>
    <g
       id="edge10"
       class="edge"
       transform="translate(-715.32303,181.73358)">
      <title
         id="title153">7-&gt;8</title>
      <path
         fill="none"
         stroke="#000000"
         d="m 836.4,-18 c 7.99,0 16.91,0 25.42,0"
         id="path155" />
      <polygon
         fill="#000000"
         stroke="#000000"
         points="861.92,-14.5 861.92,-21.5 871.92,-18 "
         id="polygon157" />
    </g>
  </g>
  <g
     id="g700"
     transform="translate(30.516806,-36.849418)">
    <g
       id="node3"
       class="node"
       transform="translate(-861.05448,251.84942)">
      <title
         id="title41">10</title>
      <polygon
         fill="#a0d5f1"
         stroke="#a0d5f1"
         points="1052,0 1106,0 1106,-36 1052,-36 "
         id="polygon43" />
      <text
         text-anchor="middle"
         x="1079"
         y="-14.3"
         font-family="Times, serif"
         font-size="14px"
         id="text45">IF</text>
    </g>
    <g
       id="node12"
       class="node"
       transform="translate(-861.05448,251.84942)">
      <title
         id="title160">9</title>
      <polygon
         fill="#71c8b0"
         stroke="#71c8b0"
         points="962,0 1016,0 1016,-36 962,-36 "
         id="polygon162" />
      <text
         text-anchor="middle"
         x="989"
         y="-14.3"
         font-family="Times, serif"
         font-size="14px"
         id="text164">Affine</text>
    </g>
    <g
       id="edge2"
       class="edge"
       transform="translate(-861.05448,251.84942)">
      <title
         id="title174">9-&gt;10</title>
      <path
         fill="none"
         stroke="#000000"
         d="m 1016.4,-18 c 7.99,0 16.91,0 25.42,0"
         id="path176" />
      <polygon
         fill="#000000"
         stroke="#000000"
         points="1041.92,-14.5 1041.92,-21.5 1051.92,-18 "
         id="polygon178" />
    </g>
  </g>
  <g
     id="g642"
     transform="translate(-27.894986,-4.6696078)">
    <g
       id="node1"
       class="node"
       transform="translate(53.857312,41.16961)">
      <title
         id="title6">0</title>
      <polygon
         fill="#ffc655"
         stroke="#ffc655"
         points="90,0 149,0 149,-36 90,-36 "
         id="polygon8" />
      <text
         text-anchor="middle"
         x="119.5"
         y="-14.3"
         font-family="Times, serif"
         font-size="14px"
         id="text10">Conv2d</text>
    </g>
    <g
       id="node2"
       class="node"
       transform="translate(53.857312,41.16961)">
      <title
         id="title13">1</title>
      <polygon
         fill="#a0d5f1"
         stroke="#a0d5f1"
         points="185,0 239,0 239,-36 185,-36 "
         id="polygon15" />
      <text
         text-anchor="middle"
         x="212"
         y="-14.3"
         font-family="Times, serif"
         font-size="14px"
         id="text17">IF</text>
    </g>
    <g
       id="edge14"
       class="edge"
       transform="translate(53.857312,41.16961)">
      <title
         id="title20">0-&gt;1</title>
      <path
         fill="none"
         stroke="#000000"
         d="m 149.13,-18 c 8.1,0 17.03,0 25.52,0"
         id="path22" />
      <polygon
         fill="#000000"
         stroke="#000000"
         points="174.7,-14.5 174.7,-21.5 184.7,-18 "
         id="polygon24" />
    </g>
    <g
       id="node5"
       class="node"
       transform="translate(53.857312,41.16961)">
      <title
         id="title27">2</title>
      <polygon
         fill="#4a9bff"
         stroke="#4a9bff"
         points="275,0 355,0 355,-36 275,-36 "
         id="polygon29" />
      <text
         text-anchor="middle"
         x="315"
         y="-14.3"
         font-family="Times, serif"
         font-size="14px"
         id="text31">SumPool2d</text>
    </g>
    <g
       id="edge7"
       class="edge"
       transform="translate(53.857312,41.16961)">
      <title
         id="title34">1-&gt;2</title>
      <path
         fill="none"
         stroke="#000000"
         d="m 239.01,-18 c 7.81,0 16.66,0 25.47,0"
         id="path36" />
      <polygon
         fill="#000000"
         stroke="#000000"
         points="264.73,-14.5 264.73,-21.5 274.73,-18 "
         id="polygon38" />
    </g>
    <g
       id="node13"
       class="node"
       transform="translate(53.857312,41.16961)">
      <title
         id="title181">input</title>
      <polygon
         fill="none"
         stroke="#000000"
         stroke-dasharray="5, 2"
         points="0,0 54,0 54,-36 0,-36 "
         id="polygon183" />
      <text
         text-anchor="middle"
         x="27"
         y="-14.3"
         font-family="Times, serif"
         font-size="14px"
         id="text185">Input</text>
    </g>
    <g
       id="edge6"
       class="edge"
       transform="translate(53.857312,41.16961)">
      <title
         id="title188">input-&gt;0</title>
      <path
         fill="none"
         stroke="#000000"
         d="m 54.18,-18 c 7.94,0 16.84,0 25.43,0"
         id="path190" />
      <polygon
         fill="#000000"
         stroke="#000000"
         points="79.85,-14.5 79.85,-21.5 89.85,-18 "
         id="polygon192" />
    </g>
  </g>
  <g
     id="g722"
     transform="translate(53.986326,-38.353808)">
    <g
       id="node4"
       class="node"
       transform="translate(-1109.524,312.85381)">
      <title
         id="title48">11</title>
      <polygon
         fill="#71c8b0"
         stroke="#71c8b0"
         points="1196,0 1196,-36 1142,-36 1142,0 "
         id="polygon50" />
      <text
         text-anchor="middle"
         x="1169"
         y="-14.3"
         font-family="Times, serif"
         font-size="14px"
         id="text52">Affine</text>
    </g>
    <g
       id="node15"
       class="node"
       transform="translate(-1109.524,312.85381)">
      <title
         id="title62">spike_output</title>
      <polygon
         fill="#a0d5f1"
         stroke="#a0d5f1"
         points="1286,0 1286,-36 1232,-36 1232,0 "
         id="polygon64" />
      <text
         text-anchor="middle"
         x="1259"
         y="-14.3"
         font-family="Times, serif"
         font-size="14px"
         id="text66">IF</text>
    </g>
    <g
       id="edge13"
       class="edge"
       transform="translate(-1109.524,312.85381)">
      <title
         id="title69">11-&gt;spike_output</title>
      <path
         fill="none"
         stroke="#000000"
         d="m 1196.4,-18 c 7.99,0 16.91,0 25.42,0"
         id="path71" />
      <polygon
         fill="#000000"
         stroke="#000000"
         points="1221.92,-21.5 1231.92,-18 1221.92,-14.5 "
         id="polygon73" />
    </g>
    <g
       id="node14"
       class="node"
       transform="translate(-1109.524,312.85381)">
      <title
         id="title195">output</title>
      <polygon
         fill="none"
         stroke="#000000"
         stroke-dasharray="5, 2"
         points="1376,0 1376,-36 1322,-36 1322,0 "
         id="polygon197" />
      <text
         text-anchor="middle"
         x="1349"
         y="-14.3"
         font-family="Times, serif"
         font-size="14px"
         id="text199">Output</text>
    </g>
    <g
       id="edge5"
       class="edge"
       transform="translate(-1109.524,312.85381)">
      <title
         id="title202">spike_output-&gt;output</title>
      <path
         fill="none"
         stroke="#000000"
         d="m 1286.4,-18 c 7.99,0 16.91,0 25.42,0"
         id="path204" />
      <polygon
         fill="#000000"
         stroke="#000000"
         points="1311.92,-21.5 1321.92,-18 1311.92,-14.5 "
         id="polygon206" />
    </g>
  </g>
  <path
     style="fill:none;stroke:#000000;stroke-width:1.15;stroke-linecap:butt;stroke-linejoin:miter;stroke-dasharray:none;stroke-opacity:1;marker-end:url(#Arrow2)"
     d="m 380.96233,18.500002 h 25.09971 V 45.93839 H 0.57671585 L 0.67224585,78 H 20.738836"
     id="path787"
     sodipodi:nodetypes="cccccc" />
  <path
     style="fill:none;stroke:#000000;stroke-width:1.15;stroke-linecap:butt;stroke-linejoin:miter;stroke-dasharray:none;stroke-opacity:1;marker-end:url(#Arrow2)"
     d="m 381.67172,77.509 h 25.09971 v 27.43839 H 103.85956 l 0.0955,32.06161 h 20.06659"
     id="path1706"
     sodipodi:nodetypes="cccccc" />
  <path
     style="fill:none;stroke:#000000;stroke-width:1.15;stroke-linecap:butt;stroke-linejoin:miter;stroke-dasharray:none;stroke-opacity:1;marker-end:url(#Arrow2)"
     d="m 276.06216,136.91076 h 25.09971 v 27.43839 H 104.09224 l 0.0955,32.06161 h 20.06659"
     id="path1722"
     sodipodi:nodetypes="cccccc" />
  <path
     style="fill:none;stroke:#000000;stroke-width:1.15;stroke-linecap:butt;stroke-linejoin:miter;stroke-dasharray:none;stroke-opacity:1;marker-end:url(#Arrow2)"
     d="m 276.43554,196.51025 h 25.09971 v 27.43839 H 58.237766 l 0.0955,32.06161 h 20.06659"
     id="path1742"
     sodipodi:nodetypes="cccccc" />
</svg>
