<?xml version="1.0" encoding="UTF-8" standalone="no"?>
<!DOCTYPE svg PUBLIC "-//W3C//DTD SVG 1.1//EN"
 "http://www.w3.org/Graphics/SVG/1.1/DTD/svg11.dtd">
<!-- Generated by graphviz version 2.43.0 (0)
 -->
<!-- Title: %3 Pages: 1 -->
<svg width="1384pt" height="44pt"
 viewBox="0.00 0.00 1384.00 44.00" xmlns="http://www.w3.org/2000/svg" xmlns:xlink="http://www.w3.org/1999/xlink">
<g id="graph0" class="graph" transform="scale(1 1) rotate(0) translate(4 40)">
<title>%3</title>
<polygon fill="white" stroke="transparent" points="-4,4 -4,-40 1380,-40 1380,4 -4,4"/>
<!-- 0 -->
<g id="node1" class="node">
<title>0</title>
<polygon fill="#ffc655" stroke="#ffc655" points="149,-36 90,-36 90,0 149,0 149,-36"/>
<text text-anchor="middle" x="119.5" y="-14.3" font-family="Times,serif" font-size="14.00">Conv2d</text>
</g>
<!-- 1 -->
<g id="node2" class="node">
<title>1</title>
<polygon fill="#a0d5f1" stroke="#a0d5f1" points="239,-36 185,-36 185,0 239,0 239,-36"/>
<text text-anchor="middle" x="212" y="-14.3" font-family="Times,serif" font-size="14.00">IF</text>
</g>
<!-- 0&#45;&gt;1 -->
<g id="edge14" class="edge">
<title>0&#45;&gt;1</title>
<path fill="none" stroke="black" d="M149.13,-18C157.23,-18 166.16,-18 174.65,-18"/>
<polygon fill="black" stroke="black" points="174.7,-21.5 184.7,-18 174.7,-14.5 174.7,-21.5"/>
</g>
<!-- 2 -->
<g id="node5" class="node">
<title>2</title>
<polygon fill="#4a9bff" stroke="#4a9bff" points="355,-36 275,-36 275,0 355,0 355,-36"/>
<text text-anchor="middle" x="315" y="-14.3" font-family="Times,serif" font-size="14.00">SumPool2d</text>
</g>
<!-- 1&#45;&gt;2 -->
<g id="edge7" class="edge">
<title>1&#45;&gt;2</title>
<path fill="none" stroke="black" d="M239.01,-18C246.82,-18 255.67,-18 264.48,-18"/>
<polygon fill="black" stroke="black" points="264.73,-21.5 274.73,-18 264.73,-14.5 264.73,-21.5"/>
</g>
<!-- 10 -->
<g id="node3" class="node">
<title>10</title>
<polygon fill="#a0d5f1" stroke="#a0d5f1" points="1106,-36 1052,-36 1052,0 1106,0 1106,-36"/>
<text text-anchor="middle" x="1079" y="-14.3" font-family="Times,serif" font-size="14.00">IF</text>
</g>
<!-- 11 -->
<g id="node4" class="node">
<title>11</title>
<polygon fill="#71c8b0" stroke="#71c8b0" points="1196,-36 1142,-36 1142,0 1196,0 1196,-36"/>
<text text-anchor="middle" x="1169" y="-14.3" font-family="Times,serif" font-size="14.00">Affine</text>
</g>
<!-- 10&#45;&gt;11 -->
<g id="edge4" class="edge">
<title>10&#45;&gt;11</title>
<path fill="none" stroke="black" d="M1106.4,-18C1114.39,-18 1123.31,-18 1131.82,-18"/>
<polygon fill="black" stroke="black" points="1131.92,-21.5 1141.92,-18 1131.92,-14.5 1131.92,-21.5"/>
</g>
<!-- spike_output -->
<g id="node15" class="node">
<title>spike_output</title>
<polygon fill="#a0d5f1" stroke="#a0d5f1" points="1286,-36 1232,-36 1232,0 1286,0 1286,-36"/>
<text text-anchor="middle" x="1259" y="-14.3" font-family="Times,serif" font-size="14.00">IF</text>
</g>
<!-- 11&#45;&gt;spike_output -->
<g id="edge13" class="edge">
<title>11&#45;&gt;spike_output</title>
<path fill="none" stroke="black" d="M1196.4,-18C1204.39,-18 1213.31,-18 1221.82,-18"/>
<polygon fill="black" stroke="black" points="1221.92,-21.5 1231.92,-18 1221.92,-14.5 1221.92,-21.5"/>
</g>
<!-- 3 -->
<g id="node6" class="node">
<title>3</title>
<polygon fill="#ffc655" stroke="#ffc655" points="450,-36 391,-36 391,0 450,0 450,-36"/>
<text text-anchor="middle" x="420.5" y="-14.3" font-family="Times,serif" font-size="14.00">Conv2d</text>
</g>
<!-- 2&#45;&gt;3 -->
<g id="edge1" class="edge">
<title>2&#45;&gt;3</title>
<path fill="none" stroke="black" d="M355.13,-18C363.5,-18 372.34,-18 380.7,-18"/>
<polygon fill="black" stroke="black" points="380.96,-21.5 390.96,-18 380.96,-14.5 380.96,-21.5"/>
</g>
<!-- 4 -->
<g id="node7" class="node">
<title>4</title>
<polygon fill="#a0d5f1" stroke="#a0d5f1" points="540,-36 486,-36 486,0 540,0 540,-36"/>
<text text-anchor="middle" x="513" y="-14.3" font-family="Times,serif" font-size="14.00">IF</text>
</g>
<!-- 3&#45;&gt;4 -->
<g id="edge9" class="edge">
<title>3&#45;&gt;4</title>
<path fill="none" stroke="black" d="M450.13,-18C458.23,-18 467.16,-18 475.65,-18"/>
<polygon fill="black" stroke="black" points="475.7,-21.5 485.7,-18 475.7,-14.5 475.7,-21.5"/>
</g>
<!-- 5 -->
<g id="node8" class="node">
<title>5</title>
<polygon fill="#4a9bff" stroke="#4a9bff" points="656,-36 576,-36 576,0 656,0 656,-36"/>
<text text-anchor="middle" x="616" y="-14.3" font-family="Times,serif" font-size="14.00">SumPool2d</text>
</g>
<!-- 4&#45;&gt;5 -->
<g id="edge11" class="edge">
<title>4&#45;&gt;5</title>
<path fill="none" stroke="black" d="M540.01,-18C547.82,-18 556.67,-18 565.48,-18"/>
<polygon fill="black" stroke="black" points="565.73,-21.5 575.73,-18 565.73,-14.5 565.73,-21.5"/>
</g>
<!-- 6 -->
<g id="node9" class="node">
<title>6</title>
<polygon fill="#e4b9dd" stroke="#e4b9dd" points="746,-36 692,-36 692,0 746,0 746,-36"/>
<text text-anchor="middle" x="719" y="-14.3" font-family="Times,serif" font-size="14.00">Flatten</text>
</g>
<!-- 5&#45;&gt;6 -->
<g id="edge8" class="edge">
<title>5&#45;&gt;6</title>
<path fill="none" stroke="black" d="M656.05,-18C664.48,-18 673.36,-18 681.68,-18"/>
<polygon fill="black" stroke="black" points="681.85,-21.5 691.85,-18 681.85,-14.5 681.85,-21.5"/>
</g>
<!-- 7 -->
<g id="node10" class="node">
<title>7</title>
<polygon fill="#71c8b0" stroke="#71c8b0" points="836,-36 782,-36 782,0 836,0 836,-36"/>
<text text-anchor="middle" x="809" y="-14.3" font-family="Times,serif" font-size="14.00">Affine</text>
</g>
<!-- 6&#45;&gt;7 -->
<g id="edge12" class="edge">
<title>6&#45;&gt;7</title>
<path fill="none" stroke="black" d="M746.4,-18C754.39,-18 763.31,-18 771.82,-18"/>
<polygon fill="black" stroke="black" points="771.92,-21.5 781.92,-18 771.92,-14.5 771.92,-21.5"/>
</g>
<!-- 8 -->
<g id="node11" class="node">
<title>8</title>
<polygon fill="#a0d5f1" stroke="#a0d5f1" points="926,-36 872,-36 872,0 926,0 926,-36"/>
<text text-anchor="middle" x="899" y="-14.3" font-family="Times,serif" font-size="14.00">IF</text>
</g>
<!-- 7&#45;&gt;8 -->
<g id="edge10" class="edge">
<title>7&#45;&gt;8</title>
<path fill="none" stroke="black" d="M836.4,-18C844.39,-18 853.31,-18 861.82,-18"/>
<polygon fill="black" stroke="black" points="861.92,-21.5 871.92,-18 861.92,-14.5 861.92,-21.5"/>
</g>
<!-- 9 -->
<g id="node12" class="node">
<title>9</title>
<polygon fill="#71c8b0" stroke="#71c8b0" points="1016,-36 962,-36 962,0 1016,0 1016,-36"/>
<text text-anchor="middle" x="989" y="-14.3" font-family="Times,serif" font-size="14.00">Affine</text>
</g>
<!-- 8&#45;&gt;9 -->
<g id="edge3" class="edge">
<title>8&#45;&gt;9</title>
<path fill="none" stroke="black" d="M926.4,-18C934.39,-18 943.31,-18 951.82,-18"/>
<polygon fill="black" stroke="black" points="951.92,-21.5 961.92,-18 951.92,-14.5 951.92,-21.5"/>
</g>
<!-- 9&#45;&gt;10 -->
<g id="edge2" class="edge">
<title>9&#45;&gt;10</title>
<path fill="none" stroke="black" d="M1016.4,-18C1024.39,-18 1033.31,-18 1041.82,-18"/>
<polygon fill="black" stroke="black" points="1041.92,-21.5 1051.92,-18 1041.92,-14.5 1041.92,-21.5"/>
</g>
<!-- input -->
<g id="node13" class="node">
<title>input</title>
<polygon fill="none" stroke="black" stroke-dasharray="5,2" points="54,-36 0,-36 0,0 54,0 54,-36"/>
<text text-anchor="middle" x="27" y="-14.3" font-family="Times,serif" font-size="14.00">Input</text>
</g>
<!-- input&#45;&gt;0 -->
<g id="edge6" class="edge">
<title>input&#45;&gt;0</title>
<path fill="none" stroke="black" d="M54.18,-18C62.12,-18 71.02,-18 79.61,-18"/>
<polygon fill="black" stroke="black" points="79.85,-21.5 89.85,-18 79.85,-14.5 79.85,-21.5"/>
</g>
<!-- output -->
<g id="node14" class="node">
<title>output</title>
<polygon fill="none" stroke="black" stroke-dasharray="5,2" points="1376,-36 1322,-36 1322,0 1376,0 1376,-36"/>
<text text-anchor="middle" x="1349" y="-14.3" font-family="Times,serif" font-size="14.00">Output</text>
</g>
<!-- spike_output&#45;&gt;output -->
<g id="edge5" class="edge">
<title>spike_output&#45;&gt;output</title>
<path fill="none" stroke="black" d="M1286.4,-18C1294.39,-18 1303.31,-18 1311.82,-18"/>
<polygon fill="black" stroke="black" points="1311.92,-21.5 1321.92,-18 1311.92,-14.5 1311.92,-21.5"/>
</g>
</g>
</svg>
